<svg width="640" height="520" viewBox="0 0 640 520" fill="none" xmlns="http://www.w3.org/2000/svg">
  <defs>
    <linearGradient id="maintBg" x1="86" y1="62" x2="560" y2="468" gradientUnits="userSpaceOnUse">
      <stop stop-color="#EEF4F1"/>
      <stop offset="1" stop-color="#FFFDF8"/>
    </linearGradient>
    <linearGradient id="handle" x1="0" y1="0" x2="1" y2="1">
      <stop stop-color="#C04F23"/>
      <stop offset="1" stop-color="#8E3C1A"/>
    </linearGradient>
    <linearGradient id="metal" x1="0" y1="0" x2="1" y2="1">
      <stop stop-color="#738E82"/>
      <stop offset="1" stop-color="#445A50"/>
    </linearGradient>
  </defs>

  <rect width="640" height="520" rx="42" fill="url(#maintBg)"/>
  <circle cx="134" cy="118" r="66" fill="#D9E7E0"/>
  <circle cx="498" cy="104" r="72" fill="#FFFFFF" fill-opacity=".8"/>
  <ellipse cx="322" cy="430" rx="218" ry="28" fill="#2D4036" fill-opacity=".1"/>

  <g transform="rotate(-18 228 230)">
    <rect x="205" y="108" width="46" height="198" rx="23" fill="url(#handle)"/>
    <path d="M173 84C173 58 194 37 220 37H236C262 37 283 58 283 84V116H173V84Z" fill="url(#metal)"/>
    <rect x="181" y="116" width="94" height="34" rx="17" fill="#DCE8E2"/>
    <rect x="213" y="306" width="30" height="92" rx="15" fill="url(#metal)"/>
    <path d="M169 383H287L307 427H149L169 383Z" fill="#D1DDD7"/>
  </g>

  <g transform="translate(330 154)">
    <rect x="0" y="94" width="28" height="170" rx="14" fill="url(#metal)"/>
    <rect x="134" y="94" width="28" height="170" rx="14" fill="url(#metal)"/>
    <rect x="18" y="116" width="126" height="22" rx="11" fill="url(#metal)"/>
    <rect x="30" y="144" width="102" height="96" rx="16" fill="#F7FBF9" stroke="#6D867B" stroke-width="8"/>
    <path d="M42 154L122 230" stroke="#6D867B" stroke-width="8" stroke-linecap="round"/>
    <path d="M122 154L42 230" stroke="#6D867B" stroke-width="8" stroke-linecap="round"/>
  </g>

  <rect x="94" y="346" width="98" height="54" rx="18" fill="#D8E5DE"/>
  <rect x="110" y="360" width="66" height="12" rx="6" fill="#5C766A"/>
  <rect x="118" y="380" width="50" height="8" rx="4" fill="#8AA094"/>
</svg>
