<svg width="640" height="520" viewBox="0 0 640 520" fill="none" xmlns="http://www.w3.org/2000/svg">
  <defs>
    <linearGradient id="woodBg" x1="74" y1="58" x2="558" y2="470" gradientUnits="userSpaceOnUse">
      <stop stop-color="#FFF4E6"/>
      <stop offset="1" stop-color="#FFFDF8"/>
    </linearGradient>
    <linearGradient id="cedarFace" x1="0" y1="0" x2="1" y2="1">
      <stop stop-color="#D09B63"/>
      <stop offset="1" stop-color="#A96B37"/>
    </linearGradient>
    <linearGradient id="brushPaint" x1="0" y1="0" x2="1" y2="1">
      <stop stop-color="#E1A55E"/>
      <stop offset="1" stop-color="#C77B2F"/>
    </linearGradient>
  </defs>

  <rect width="640" height="520" rx="42" fill="url(#woodBg)"/>
  <circle cx="116" cy="114" r="62" fill="#FFE2B5" fill-opacity=".48"/>
  <circle cx="500" cy="106" r="72" fill="#FFFFFF" fill-opacity=".72"/>
  <ellipse cx="302" cy="438" rx="218" ry="28" fill="#5C4226" fill-opacity=".12"/>

  <rect x="120" y="190" width="42" height="190" rx="10" fill="url(#cedarFace)"/>
  <rect x="166" y="176" width="42" height="204" rx="10" fill="url(#cedarFace)"/>
  <rect x="212" y="168" width="42" height="212" rx="10" fill="url(#cedarFace)"/>
  <rect x="258" y="162" width="42" height="218" rx="10" fill="url(#cedarFace)"/>
  <rect x="304" y="162" width="42" height="218" rx="10" fill="url(#cedarFace)"/>
  <rect x="350" y="168" width="42" height="212" rx="10" fill="url(#cedarFace)"/>
  <rect x="396" y="176" width="42" height="204" rx="10" fill="url(#cedarFace)"/>
  <rect x="442" y="190" width="42" height="190" rx="10" fill="url(#cedarFace)"/>

  <g opacity=".22" stroke="#6F4926" stroke-width="3">
    <path d="M138 198V372"/>
    <path d="M184 184V372"/>
    <path d="M230 176V372"/>
    <path d="M276 170V372"/>
    <path d="M322 170V372"/>
    <path d="M368 176V372"/>
    <path d="M414 184V372"/>
    <path d="M460 198V372"/>
  </g>

  <rect x="128" y="232" width="352" height="18" rx="9" fill="#7A4B24" fill-opacity=".44"/>
  <rect x="128" y="296" width="352" height="18" rx="9" fill="#7A4B24" fill-opacity=".44"/>

  <g transform="rotate(18 505 299)">
    <rect x="470" y="154" width="34" height="162" rx="16" fill="#EFE6D9"/>
    <rect x="477" y="173" width="20" height="78" rx="10" fill="#C8B79F"/>
    <path d="M458 306H520L536 361H444L458 306Z" fill="url(#brushPaint)"/>
    <path d="M450 362H532L548 383H434L450 362Z" fill="#EDD5AE"/>
  </g>

  <rect x="92" y="330" width="78" height="70" rx="16" fill="#E3A361"/>
  <rect x="103" y="344" width="56" height="42" rx="8" fill="#FFF2E3"/>
  <rect x="108" y="320" width="46" height="16" rx="8" fill="#C37B3F"/>
</svg>
