<?xml version="1.0" encoding="UTF-8" standalone="no"?>
<!-- Created with Inkscape (http://www.inkscape.org/) -->

<svg
   width="1000mm"
   height="297mm"
   viewBox="0 0 1000 297"
   version="1.1"
   id="svg1"
   inkscape:version="1.3.2 (091e20e, 2023-11-25)"
   sodipodi:docname="2026 Logo Green with Text Strong Perimeter.svg"
   xmlns:inkscape="http://www.inkscape.org/namespaces/inkscape"
   xmlns:sodipodi="http://sodipodi.sourceforge.net/DTD/sodipodi-0.dtd"
   xmlns="http://www.w3.org/2000/svg"
   xmlns:svg="http://www.w3.org/2000/svg">
  <sodipodi:namedview
     id="namedview1"
     pagecolor="#ffffff"
     bordercolor="#000000"
     borderopacity="0.25"
     inkscape:showpageshadow="2"
     inkscape:pageopacity="0.0"
     inkscape:pagecheckerboard="0"
     inkscape:deskcolor="#d1d1d1"
     inkscape:document-units="px"
     inkscape:zoom="0.15581804"
     inkscape:cx="1963.8291"
     inkscape:cy="1415.1122"
     inkscape:window-width="2048"
     inkscape:window-height="1212"
     inkscape:window-x="1686"
     inkscape:window-y="25"
     inkscape:window-maximized="0"
     inkscape:current-layer="layer1" />
  <defs
     id="defs1">
    <clipPath
       clipPathUnits="userSpaceOnUse"
       id="clipPath2">
      <path
         d="M 0,3000 H 3000 V 0 H 0 Z"
         transform="translate(-2642.8744,-502.62384)"
         id="path2" />
    </clipPath>
    <clipPath
       clipPathUnits="userSpaceOnUse"
       id="clipPath4">
      <path
         d="M 0,3000 H 3000 V 0 H 0 Z"
         transform="translate(-652.23941,-964.1326)"
         id="path4" />
    </clipPath>
    <clipPath
       clipPathUnits="userSpaceOnUse"
       id="clipPath6">
      <path
         d="M 0,3000 H 3000 V 0 H 0 Z"
         transform="translate(-792.41192,-923.42102)"
         id="path6" />
    </clipPath>
    <clipPath
       clipPathUnits="userSpaceOnUse"
       id="clipPath8">
      <path
         d="M 0,3000 H 3000 V 0 H 0 Z"
         transform="translate(-1005.9988,-1127.2015)"
         id="path8" />
    </clipPath>
    <clipPath
       clipPathUnits="userSpaceOnUse"
       id="clipPath10">
      <path
         d="M 0,3000 H 3000 V 0 H 0 Z"
         transform="translate(-1109.9092,-998.61512)"
         id="path10" />
    </clipPath>
    <clipPath
       clipPathUnits="userSpaceOnUse"
       id="clipPath12">
      <path
         d="M 0,3000 H 3000 V 0 H 0 Z"
         transform="translate(-1549.3009,-873.81062)"
         id="path12" />
    </clipPath>
    <clipPath
       clipPathUnits="userSpaceOnUse"
       id="clipPath14">
      <path
         d="M 0,3000 H 3000 V 0 H 0 Z"
         transform="translate(-1650.0967,-1041.1065)"
         id="path14" />
    </clipPath>
    <clipPath
       clipPathUnits="userSpaceOnUse"
       id="clipPath16">
      <path
         d="M 0,3000 H 3000 V 0 H 0 Z"
         transform="translate(-529.21492,-661.76619)"
         id="path16" />
    </clipPath>
    <clipPath
       clipPathUnits="userSpaceOnUse"
       id="clipPath18">
      <path
         d="M 0,3000 H 3000 V 0 H 0 Z"
         transform="translate(-825.78212,-694.69142)"
         id="path18" />
    </clipPath>
    <clipPath
       clipPathUnits="userSpaceOnUse"
       id="clipPath20">
      <path
         d="M 0,3000 H 3000 V 0 H 0 Z"
         transform="translate(-1112.5609,-742.96689)"
         id="path20" />
    </clipPath>
    <clipPath
       clipPathUnits="userSpaceOnUse"
       id="clipPath22">
      <path
         d="M 0,3000 H 3000 V 0 H 0 Z"
         id="path22" />
    </clipPath>
    <clipPath
       clipPathUnits="userSpaceOnUse"
       id="clipPath24">
      <path
         d="M 0,3000 H 3000 V 0 H 0 Z"
         transform="translate(-1505.9197,-489.57601)"
         id="path24" />
    </clipPath>
    <clipPath
       clipPathUnits="userSpaceOnUse"
       id="clipPath26">
      <path
         d="M 0,3000 H 3000 V 0 H 0 Z"
         transform="translate(-1815.3903,-694.69142)"
         id="path26" />
    </clipPath>
    <clipPath
       clipPathUnits="userSpaceOnUse"
       id="clipPath28">
      <path
         d="M 0,3000 H 3000 V 0 H 0 Z"
         transform="translate(-2068.1317,-539.18634)"
         id="path28" />
    </clipPath>
    <clipPath
       clipPathUnits="userSpaceOnUse"
       id="clipPath30">
      <path
         d="M 0,3000 H 3000 V 0 H 0 Z"
         transform="translate(-2245.9012,-694.69142)"
         id="path30" />
    </clipPath>
    <clipPath
       clipPathUnits="userSpaceOnUse"
       id="clipPath32">
      <path
         d="M 0,3000 H 3000 V 0 H 0 Z"
         transform="translate(-2532.6799,-742.96689)"
         id="path32" />
    </clipPath>
  </defs>
  <g
     inkscape:label="Layer 1"
     inkscape:groupmode="layer"
     id="layer1">
    <path
       id="path1"
       clip-path="url(#clipPath2)"
       style="fill:#004b3d;fill-opacity:1;fill-rule:nonzero;stroke:none"
       inkscape:label="path1"
       d="m -1137.8448,2386.0967 c -82.1261,0 -159.3383,-31.9823 -217.4014,-90.0495 L -2439.8456,1211.4593 c -58.0716,-58.0708 -90.0495,-135.2832 -90.0495,-217.40715 V -69.408434 c 0,-169.529206 137.9206,-307.450926 307.4509,-307.450926 H -74.384218 c 169.530286,0 307.450928,137.92172 307.450928,307.450926 V 1016.4119 c 0,82.1283 -31.98211,159.3415 -90.04951,217.4014 L -919.21671,2296.0415 c -58.06739,58.0717 -135.27309,90.0552 -217.40139,90.0552 z m -1.9741,-418.0915 h 0.9985 c 33.1566,0 64.9513,-13.1658 88.3949,-36.612 l 863.83741,-863.8374 c 23.44619,-23.4436 36.61203,-55.24 36.61203,-88.39494 V 96.141626 c 0,-69.041407 -55.96206,-125.018366 -125.00695,-125.018366 H -2021.8454 c -69.0432,0 -125.0069,55.976959 -125.0069,125.018366 V 960.97751 c 0,33.154 13.1675,64.95219 36.612,88.39489 l 882.0208,882.0208 c 23.4444,23.4462 55.244,36.612 88.4006,36.612 z"
       transform="matrix(0.09222298,0,0,-0.09222298,239.52874,241.64117)" />
    <g
       id="g2"
       transform="matrix(0.73947108,0,0,0.73947108,268.38077,-97.406043)"
       style="fill:#004b3d;fill-opacity:1">
      <path
         id="path3"
         d="m 0,0 c 0,-29.366 -10.567,-52.502 -31.701,-69.41 -21.135,-16.908 -50.539,-25.361 -88.209,-25.361 -34.705,0 -65.405,6.524 -92.102,19.577 v 64.071 c 21.948,-9.789 40.524,-16.685 55.729,-20.69 15.2,-4.004 29.105,-6.007 41.712,-6.007 15.128,0 26.731,2.893 34.816,8.677 8.082,5.784 12.125,14.383 12.125,25.806 0,6.374 -1.78,12.047 -5.339,17.019 -3.56,4.967 -8.788,9.75 -15.684,14.349 -6.897,4.595 -20.95,11.936 -42.158,22.024 -19.876,9.344 -34.781,18.315 -44.716,26.919 -9.938,8.599 -17.874,18.61 -23.804,30.033 -5.934,11.419 -8.899,24.767 -8.899,40.044 0,28.771 9.751,51.39 29.255,67.853 19.501,16.463 46.457,24.694 80.867,24.694 16.907,0 33.036,-2.002 48.387,-6.007 15.35,-4.004 31.402,-9.643 48.164,-16.907 l -22.247,-53.615 c -17.352,7.119 -31.701,12.086 -43.047,14.905 -11.346,2.815 -22.508,4.227 -33.482,4.227 -13.052,0 -23.063,-3.042 -30.033,-9.121 -6.973,-6.084 -10.456,-14.016 -10.456,-23.804 0,-6.084 1.408,-11.385 4.227,-15.906 2.816,-4.527 7.303,-8.899 13.459,-13.126 6.153,-4.227 20.725,-11.829 43.715,-22.803 C -49.019,82.903 -28.18,68.332 -16.907,53.726 -5.638,39.116 0,21.207 0,0"
         style="fill:#004b3d;fill-opacity:1;fill-rule:nonzero;stroke:none"
         transform="matrix(0.45607584,0,0,-0.45607584,112.9041,281.90403)"
         clip-path="url(#clipPath4)" />
      <path
         id="path5"
         d="m 0,0 c 11.864,0 26.102,2.592 42.714,7.786 v -50.5 C 25.806,-50.278 5.04,-54.06 -19.577,-54.06 c -27.141,0 -46.906,6.858 -59.288,20.579 -12.385,13.715 -18.576,34.294 -18.576,61.734 v 119.911 h -32.48 v 28.698 l 37.374,22.692 19.578,52.502 h 43.381 V 199.109 H 40.044 V 148.164 H -29.588 V 28.253 c 0,-9.643 2.704,-16.762 8.12,-21.357 C -16.056,2.297 -8.899,0 0,0"
         style="fill:#004b3d;fill-opacity:1;fill-rule:nonzero;stroke:none"
         transform="matrix(0.45607584,0,0,-0.45607584,176.83337,300.47161)"
         clip-path="url(#clipPath6)" />
      <path
         id="path7"
         d="m 0,0 c 9.194,0 16.831,-0.667 22.914,-2.002 l -5.117,-63.626 c -5.488,1.48 -12.162,2.225 -20.022,2.225 -21.655,0 -38.525,-5.562 -50.611,-16.686 -12.09,-11.123 -18.131,-26.696 -18.131,-46.718 V -253.391 H -138.82 V -4.672 h 51.39 l 10.011,-41.824 h 3.337 c 7.71,13.939 18.131,25.173 31.257,33.704 C -29.699,-4.266 -15.427,0 0,0"
         style="fill:#004b3d;fill-opacity:1;fill-rule:nonzero;stroke:none"
         transform="matrix(0.45607584,0,0,-0.45607584,274.2452,207.53227)"
         clip-path="url(#clipPath8)" />
      <path
         id="path9"
         d="m 0,0 c 0,-24.621 4.039,-43.236 12.125,-55.839 8.081,-12.608 21.245,-18.91 39.488,-18.91 18.092,0 31.107,6.263 39.043,18.798 7.932,12.531 11.902,31.18 11.902,55.951 0,24.617 -4.005,43.082 -12.014,55.394 C 82.536,67.703 69.41,73.859 51.168,73.859 33.071,73.859 20.022,67.742 12.013,55.506 4.004,43.27 0,24.767 0,0 m 171.968,0 c 0,-40.489 -10.679,-72.157 -32.036,-94.994 -21.357,-22.841 -51.094,-34.26 -89.209,-34.26 -23.881,0 -44.939,5.228 -63.181,15.684 -18.243,10.456 -32.258,25.473 -42.047,45.05 -9.788,19.577 -14.683,42.414 -14.683,68.52 0,40.634 10.603,72.225 31.813,94.771 21.208,22.542 51.019,33.815 89.432,33.815 23.878,0 44.939,-5.193 63.181,-15.572 C 133.481,102.63 147.496,87.725 157.285,68.298 167.073,48.866 171.968,26.101 171.968,0"
         style="fill:#004b3d;fill-opacity:1;fill-rule:nonzero;stroke:none"
         transform="matrix(0.45607584,0,0,-0.45607584,321.63622,266.17739)"
         clip-path="url(#clipPath10)" />
      <path
         id="path11"
         d="m 0,0 h -67.853 v 145.271 c 0,17.943 -3.191,31.403 -9.566,40.378 -6.378,8.972 -16.539,13.46 -30.478,13.46 -18.986,0 -32.703,-6.341 -41.156,-19.021 -8.454,-12.681 -12.681,-33.704 -12.681,-63.07 V 0 h -67.853 v 248.719 h 51.835 l 9.121,-31.813 h 3.782 c 7.564,12.013 17.982,21.096 31.257,27.253 13.272,6.151 28.365,9.232 45.272,9.232 28.921,0 50.869,-7.825 65.851,-23.471 C -7.491,214.271 0,191.69 0,162.179 Z"
         style="fill:#004b3d;fill-opacity:1;fill-rule:nonzero;stroke:none"
         transform="matrix(0.45607584,0,0,-0.45607584,522.03217,323.09771)"
         clip-path="url(#clipPath12)" />
      <path
         id="path13"
         d="m 0,0 c 0,-13.498 3.076,-24.176 9.232,-32.035 6.153,-7.864 15.535,-11.791 28.143,-11.791 12.753,0 22.097,3.927 28.031,11.791 5.93,7.859 8.898,18.537 8.898,32.035 0,29.956 -12.312,44.938 -36.929,44.938 C 12.458,44.938 0,29.956 0,0 m -24.694,-202.446 c 0,-9.343 4.484,-16.685 13.459,-22.024 8.972,-5.339 21.542,-8.009 37.709,-8.009 24.322,0 43.381,3.337 57.174,10.011 13.793,6.674 20.689,15.795 20.689,27.364 0,9.343 -4.08,15.795 -12.235,19.354 -8.159,3.56 -20.766,5.34 -37.82,5.34 h -35.15 c -12.458,0 -22.879,-2.927 -31.257,-8.788 -8.38,-5.857 -12.569,-13.604 -12.569,-23.248 M 167.296,81.423 V 46.941 L 128.364,36.93 c 7.119,-11.124 10.678,-23.582 10.678,-37.375 0,-26.696 -9.308,-47.497 -27.919,-62.402 -18.615,-14.906 -44.459,-22.358 -77.53,-22.358 l -12.236,0.667 -10.011,1.113 C 4.373,-88.765 0.89,-94.699 0.89,-101.223 c 0,-9.788 12.458,-14.683 37.374,-14.683 h 42.269 c 27.287,0 48.088,-5.861 62.403,-17.575 14.311,-11.718 21.468,-28.921 21.468,-51.612 0,-29.066 -12.125,-51.613 -36.374,-67.63 -24.249,-16.018 -59.065,-24.027 -104.448,-24.027 -34.705,0 -61.217,6.045 -79.533,18.131 -18.318,12.09 -27.474,29.032 -27.474,50.834 0,14.983 4.671,27.513 14.015,37.597 9.344,10.084 23.06,17.275 41.157,21.579 -6.973,2.965 -13.053,7.821 -18.243,14.572 -5.193,6.747 -7.786,13.904 -7.786,21.468 0,9.489 2.742,17.387 8.231,23.693 5.485,6.302 13.421,12.492 23.804,18.576 -13.052,5.635 -23.397,14.683 -31.034,27.141 -7.64,12.458 -11.457,27.141 -11.457,44.049 0,27.141 8.822,48.126 26.473,62.958 17.649,14.829 42.86,22.247 75.64,22.247 6.969,0 15.239,-0.633 24.805,-1.891 9.566,-1.262 15.684,-2.19 18.353,-2.781 z"
         style="fill:#004b3d;fill-opacity:1;fill-rule:nonzero;stroke:none"
         transform="matrix(0.45607584,0,0,-0.45607584,568.0027,246.79812)"
         clip-path="url(#clipPath14)" />
      <path
         id="path15"
         d="m 0,0 h 22.692 c 21.207,0 37.075,4.188 47.608,12.569 10.529,8.377 15.795,20.579 15.795,36.596 0,16.163 -4.414,28.104 -13.237,35.818 -8.825,7.709 -22.657,11.568 -41.49,11.568 H 0 Z m 155.727,51.612 c 0,-35.004 -10.938,-61.773 -32.814,-80.31 C 101.035,-47.24 69.928,-56.507 29.588,-56.507 H 0 V -172.19 H -68.965 V 153.058 H 34.927 c 39.45,0 69.445,-8.493 89.988,-25.473 20.541,-16.984 30.812,-42.307 30.812,-75.973"
         style="fill:#004b3d;fill-opacity:1;fill-rule:nonzero;stroke:none"
         transform="matrix(0.45607584,0,0,-0.45607584,56.795575,419.80606)"
         clip-path="url(#clipPath16)" />
      <path
         id="path17"
         d="m 0,0 c -14.387,0 -25.66,-4.561 -33.815,-13.682 -8.158,-9.121 -12.83,-22.063 -14.016,-38.82 H 47.386 C 47.087,-35.745 42.714,-22.803 34.26,-13.682 25.806,-4.561 14.384,0 0,0 m 9.566,-209.565 c -40.044,0 -71.339,11.047 -93.881,33.148 -22.546,22.097 -33.815,53.392 -33.815,93.881 0,41.675 10.417,73.894 31.256,96.663 20.836,22.764 49.645,34.149 86.429,34.149 35.15,0 62.514,-10.012 82.091,-30.034 19.577,-20.022 29.365,-47.685 29.365,-82.98 V -97.663 H -49.388 c 0.741,-19.282 6.452,-34.338 17.13,-45.161 10.679,-10.829 25.657,-16.241 44.939,-16.241 14.978,0 29.143,1.558 42.491,4.672 13.348,3.115 27.287,8.082 41.824,14.906 v -52.503 c -11.867,-5.934 -24.548,-10.345 -38.042,-13.237 -13.498,-2.892 -29.96,-4.338 -49.388,-4.338"
         style="fill:#004b3d;fill-opacity:1;fill-rule:nonzero;stroke:none"
         transform="matrix(0.45607584,0,0,-0.45607584,192.05272,404.78965)"
         clip-path="url(#clipPath18)" />
      <path
         id="path19"
         d="m 0,0 c 9.194,0 16.831,-0.667 22.914,-2.002 l -5.117,-63.626 c -5.488,1.48 -12.162,2.225 -20.022,2.225 -21.655,0 -38.525,-5.562 -50.611,-16.685 -12.09,-11.124 -18.131,-26.697 -18.131,-46.719 V -253.391 H -138.82 V -4.672 h 51.39 l 10.011,-41.824 h 3.337 c 7.71,13.939 18.131,25.173 31.257,33.704 C -29.699,-4.265 -15.427,0 0,0"
         style="fill:#004b3d;fill-opacity:1;fill-rule:nonzero;stroke:none"
         transform="matrix(0.45607584,0,0,-0.45607584,322.8456,382.77238)"
         clip-path="url(#clipPath20)" />
      <path
         id="path21"
         d="m 1230.264,489.576 h -67.853 v 248.719 h 67.853 z m -70.745,313.012 c 0,22.097 12.309,33.148 36.93,33.148 24.618,0 36.93,-11.051 36.93,-33.148 0,-10.533 -3.08,-18.726 -9.233,-24.582 -6.156,-5.862 -15.388,-8.788 -27.697,-8.788 -24.621,0 -36.93,11.123 -36.93,33.37"
         style="fill:#004b3d;fill-opacity:1;fill-rule:nonzero;stroke:none"
         transform="matrix(0.45607584,0,0,-0.45607584,-184.56653,721.62164)"
         clip-path="url(#clipPath22)" />
      <path
         id="path23"
         d="m 0,0 h -67.853 v 145.271 c 0,17.943 -3.003,31.403 -9.01,40.378 -6.006,8.972 -15.461,13.46 -28.364,13.46 -17.353,0 -29.96,-6.379 -37.82,-19.133 -7.863,-12.757 -11.791,-33.742 -11.791,-62.958 V 0 h -67.852 v 248.719 h 51.835 l 9.121,-31.813 h 3.782 c 6.674,11.419 16.313,20.356 28.921,26.808 12.604,6.451 27.064,9.677 43.381,9.677 37.225,0 62.437,-12.163 75.639,-36.485 h 6.007 c 6.674,11.568 16.497,20.54 29.477,26.919 12.976,6.374 27.62,9.566 43.937,9.566 28.177,0 49.499,-7.23 63.96,-21.691 14.46,-14.46 21.69,-37.635 21.69,-69.521 L 155.06,0 H 86.985 v 145.271 c 0,17.943 -3.003,31.403 -9.01,40.378 -6.007,8.972 -15.462,13.46 -28.365,13.46 -16.612,0 -29.032,-5.934 -37.263,-17.798 C 4.116,169.443 0,150.611 0,124.804 Z"
         style="fill:#004b3d;fill-opacity:1;fill-rule:nonzero;stroke:none"
         transform="matrix(0.45607584,0,0,-0.45607584,502.24705,498.33785)"
         clip-path="url(#clipPath24)" />
      <path
         id="path25"
         d="m 0,0 c -14.387,0 -25.66,-4.561 -33.815,-13.682 -8.158,-9.121 -12.83,-22.063 -14.016,-38.82 H 47.386 C 47.087,-35.745 42.714,-22.803 34.26,-13.682 25.806,-4.561 14.384,0 0,0 m 9.566,-209.565 c -40.044,0 -71.339,11.047 -93.881,33.148 -22.546,22.097 -33.815,53.392 -33.815,93.881 0,41.675 10.417,73.894 31.256,96.663 20.836,22.764 49.645,34.149 86.429,34.149 35.15,0 62.513,-10.012 82.091,-30.034 19.577,-20.022 29.365,-47.685 29.365,-82.98 V -97.663 H -49.388 c 0.741,-19.282 6.452,-34.338 17.13,-45.161 10.679,-10.829 25.657,-16.241 44.939,-16.241 14.978,0 29.143,1.558 42.491,4.672 13.348,3.115 27.287,8.082 41.824,14.906 v -52.503 c -11.867,-5.934 -24.548,-10.345 -38.042,-13.237 -13.498,-2.892 -29.96,-4.338 -49.388,-4.338"
         style="fill:#004b3d;fill-opacity:1;fill-rule:nonzero;stroke:none"
         transform="matrix(0.45607584,0,0,-0.45607584,643.38914,404.78965)"
         clip-path="url(#clipPath26)" />
      <path
         id="path27"
         d="m 0,0 c 11.864,0 26.102,2.593 42.714,7.786 v -50.5 C 25.806,-50.278 5.04,-54.06 -19.577,-54.06 c -27.141,0 -46.906,6.858 -59.288,20.579 -12.385,13.715 -18.576,34.294 -18.576,61.734 v 119.911 h -32.48 v 28.698 l 37.374,22.692 19.578,52.502 h 43.381 V 199.109 H 40.044 V 148.164 H -29.588 V 28.253 c 0,-9.643 2.704,-16.762 8.12,-21.356 C -16.056,2.297 -8.899,0 0,0"
         style="fill:#004b3d;fill-opacity:1;fill-rule:nonzero;stroke:none"
         transform="matrix(0.45607584,0,0,-0.45607584,758.65834,475.71175)"
         clip-path="url(#clipPath28)" />
      <path
         id="path29"
         d="m 0,0 c -14.387,0 -25.66,-4.561 -33.815,-13.682 -8.158,-9.121 -12.83,-22.063 -14.016,-38.82 H 47.386 C 47.087,-35.745 42.714,-22.803 34.26,-13.682 25.806,-4.561 14.384,0 0,0 m 9.566,-209.565 c -40.044,0 -71.339,11.047 -93.881,33.148 -22.546,22.097 -33.815,53.392 -33.815,93.881 0,41.675 10.417,73.894 31.256,96.663 20.836,22.764 49.645,34.149 86.429,34.149 35.15,0 62.514,-10.012 82.091,-30.034 19.577,-20.022 29.365,-47.685 29.365,-82.98 V -97.663 H -49.388 c 0.741,-19.282 6.452,-34.338 17.13,-45.161 10.679,-10.829 25.657,-16.241 44.939,-16.241 14.978,0 29.143,1.558 42.491,4.672 13.348,3.115 27.287,8.082 41.824,14.906 v -52.503 c -11.867,-5.934 -24.548,-10.345 -38.042,-13.237 -13.497,-2.892 -29.96,-4.338 -49.388,-4.338"
         style="fill:#004b3d;fill-opacity:1;fill-rule:nonzero;stroke:none"
         transform="matrix(0.45607584,0,0,-0.45607584,839.73473,404.78965)"
         clip-path="url(#clipPath30)" />
      <path
         id="path31"
         d="m 0,0 c 9.194,0 16.831,-0.667 22.914,-2.002 l -5.117,-63.626 c -5.488,1.48 -12.162,2.225 -20.022,2.225 -21.655,0 -38.525,-5.562 -50.611,-16.685 -12.09,-11.124 -18.131,-26.697 -18.131,-46.719 V -253.391 H -138.82 V -4.672 h 51.39 l 10.011,-41.824 h 3.337 c 7.71,13.939 18.131,25.173 31.257,33.704 C -29.699,-4.265 -15.427,0 0,0"
         style="fill:#004b3d;fill-opacity:1;fill-rule:nonzero;stroke:none"
         transform="matrix(0.45607584,0,0,-0.45607584,970.5276,382.77238)"
         clip-path="url(#clipPath32)" />
    </g>
  </g>
</svg>
