<?xml version="1.0" encoding="UTF-8" standalone="no"?>
<svg
   width="24"
   height="24"
   viewBox="0 0 24 24"
   version="1.1"
   id="svg1"
   sodipodi:docname="sp-star-orange.svg"
   inkscape:version="1.3.2 (091e20e, 2023-11-25)"
   xmlns:inkscape="http://www.inkscape.org/namespaces/inkscape"
   xmlns:sodipodi="http://sodipodi.sourceforge.net/DTD/sodipodi-0.dtd"
   xmlns="http://www.w3.org/2000/svg"
   xmlns:svg="http://www.w3.org/2000/svg">
  <defs
     id="defs1">
    <inkscape:path-effect
       effect="powerstroke"
       id="path-effect2"
       is_visible="true"
       lpeversion="1.3"
       scale_width="1"
       interpolator_type="CubicBezierJohan"
       interpolator_beta="0.2"
       start_linecap_type="zerowidth"
       end_linecap_type="zerowidth"
       offset_points="0,18.867925"
       linejoin_type="extrp_arc"
       miter_limit="4"
       not_jump="false"
       sort_points="true"
       message="&lt;b&gt;Ctrl + click&lt;/b&gt; on existing node and move it" />
    <inkscape:path-effect
       effect="fill_between_many"
       method="bsplinespiro"
       autoreverse="false"
       close="false"
       join="false"
       linkedpaths="#path2,0,1"
       id="path-effect3" />
  </defs>
  <sodipodi:namedview
     id="namedview1"
     pagecolor="#ffffff"
     bordercolor="#000000"
     borderopacity="0.25"
     inkscape:showpageshadow="2"
     inkscape:pageopacity="0.0"
     inkscape:pagecheckerboard="0"
     inkscape:deskcolor="#d1d1d1"
     inkscape:zoom="24.291667"
     inkscape:cx="12"
     inkscape:cy="12"
     inkscape:window-width="1392"
     inkscape:window-height="1212"
     inkscape:window-x="2464"
     inkscape:window-y="35"
     inkscape:window-maximized="0"
     inkscape:current-layer="svg1" />
  <path
     d="m6.516 14.323-1.49 6.452a.998.998 0 0 0 1.529 1.057L12 18.202l5.445 3.63a1.001 1.001 0 0 0 1.517-1.106l-1.829-6.4 4.536-4.082a1 1 0 0 0-.59-1.74l-5.701-.454-2.467-5.461a.998.998 0 0 0-1.822 0L8.622 8.05l-5.701.453a1 1 0 0 0-.619 1.713l4.214 4.107zm2.853-4.326a.998.998 0 0 0 .832-.586L12 5.43l1.799 3.981a.998.998 0 0 0 .832.586l3.972.315-3.271 2.944c-.284.256-.397.65-.293 1.018l1.253 4.385-3.736-2.491a.995.995 0 0 0-1.109 0l-3.904 2.603 1.05-4.546a1 1 0 0 0-.276-.94l-3.038-2.962 4.09-.326z"
     id="path1"
     style="fill:#db7337;fill-opacity:1;stroke:none" />
  <path
     inkscape:original-d="M 0,0"
     inkscape:path-effect="#path-effect3"
     d="M 11.608919,4.0343053 9.1801029,8.974271 3.8696398,9.7975986 7.2864494,13.955403 6.2572899,20.295026 11.999917,17.125214 17.495712,20.58319 16.219554,13.996569 20.70669,9.6329331 14.696398,9.0566038 Z"
     id="path3"
     style="fill:#db7337" />
  <path
     style="fill:#db7337;fill-opacity:1;fill-rule:nonzero;stroke:none;stroke-width:2;stroke-linecap:square"
     d="M 10.71152,3.5930844 C 10.2024,4.6285832 9.437152,6.1850206 8.5124153,8.0658413 7.0405545,8.2940368 5.4186558,8.5454939 3.7164329,8.8094045 A 0.99999993,1.0000009 65.887185 0 0 3.0970476,10.432501 c 1.0110264,1.230285 2.0660931,2.514162 3.1299161,3.808693 -0.3215927,1.981011 -0.6440719,3.967483 -0.956752,5.893593 a 0.99999948,1.0000005 80.161496 0 0 1.4703276,1.035722 c 1.8245763,-1.007129 3.5893547,-1.98125 5.2261447,-2.884724 1.565018,0.984716 3.252193,2.046292 4.996472,3.1438 a 1.0000005,0.99999948 10.606554 0 0 1.514299,-1.036607 c -0.383515,-1.97943 -0.778918,-4.020221 -1.173386,-6.056187 1.393484,-1.355131 2.775411,-2.699023 4.099793,-3.986954 A 1.0000009,0.99999988 25.63838 0 0 20.802141,8.637499 C 18.842146,8.4495543 16.976245,8.2706323 15.28752,8.1086997 14.098005,6.1737568 13.113726,4.5726631 12.460817,3.5105975 Z m 0.0455,0.9649287 c 0.700043,1.1387368 1.781027,2.8971362 3.087479,5.0222985 a 1,1 76.948036 0 0 0.756445,0.4717264 c 1.199549,0.115025 2.49674,0.239413 3.859818,0.370119 -0.96489,0.938334 -1.949803,1.896139 -2.938381,2.857508 a 1,0.99999999 62.417116 0 0 -0.284571,0.907117 c 0.27956,1.442888 0.56015,2.891095 0.837197,4.321014 -1.232627,-0.775573 -2.42186,-1.523843 -3.542536,-2.228977 a 1,1 47.286961 0 0 -1.015804,-0.02909 c -1.243965,0.686643 -2.5687699,1.417908 -3.9428945,2.176397 0.2314047,-1.425453 0.4660259,-2.87072 0.699754,-4.310485 A 0.99999999,1 29.904033 0 0 8.0590416,13.3205 C 7.2836396,12.376939 6.5111983,11.43698 5.7553314,10.51719 7.0210106,10.320961 8.2243833,10.134392 9.3333113,9.9624649 a 1,1 8.6844716 0 0 0.7441897,-0.546973 c 1.027743,-2.0903236 1.878116,-3.8198968 2.428817,-4.9399657 z"
     id="path2"
     inkscape:path-effect="#path-effect2"
     inkscape:original-d="M 11.608919,4.0343053 9.1801029,8.974271 3.8696398,9.7975986 7.2864494,13.955403 6.2572899,20.295026 11.999917,17.125214 17.495712,20.58319 16.219554,13.996569 20.70669,9.6329331 14.696398,9.0566038 Z"
     inkscape:linked-fill="path3" />
</svg>
