<?xml version="1.0" encoding="utf-8"?>
<!-- Generator: Adobe Illustrator 28.3.0, SVG Export Plug-In . SVG Version: 6.00 Build 0)  -->
<svg version="1.1" id="Layer_1" xmlns="http://www.w3.org/2000/svg" xmlns:xlink="http://www.w3.org/1999/xlink" x="0px" y="0px"
	 viewBox="0 0 256 256" style="enable-background:new 0 0 256 256;" xml:space="preserve">
<style type="text/css">
	.st0{fill:#004B3D;}
	.st1{fill:#FFFFFF;}
</style>
<path class="st0" d="M39.7,253.9c-20.9,0-37.9-17-37.9-37.9v-87.4c0-10.1,3.9-19.6,11.1-26.8l89.1-89.1c7.2-7.2,16.7-11.1,26.8-11.1
	h0.1c10.1,0,19.6,3.9,26.8,11.1l87.3,87.3c7.2,7.2,11.1,16.7,11.1,26.8V216c0,20.9-17,37.9-37.9,37.9H39.7z"/>
<path class="st1" d="M50.8,230.1c-12.2,0-22.1-9.9-22.1-22.1v-76.5c0-5.9,2.3-11.5,6.5-15.6l78-78c4.2-4.2,9.7-6.5,15.6-6.5h0.1
	c5.9,0,11.5,2.3,15.6,6.5l76.4,76.4c4.2,4.2,6.5,9.7,6.5,15.6V208c0,12.2-9.9,22.1-22.1,22.1H50.8z"/>
<path class="st0" d="M63.3,206.8c-5.1,0-9.3-4.1-9.3-9.3v-64.1c0-2.5,1-4.8,2.7-6.6l65.4-65.4c1.7-1.7,4.1-2.7,6.6-2.7h0.1
	c2.5,0,4.8,1,6.6,2.7l64,64c1.7,1.7,2.7,4.1,2.7,6.6v65.4c0,5.1-4.1,9.3-9.3,9.3H63.3z"/>
</svg>
